<svg width="375" height="62" viewBox="0 0 375 62" fill="none" xmlns="http://www.w3.org/2000/svg">
<path d="M135.464 33.4687L130.311 51.9981H124.948L117.776 24.8666H123.665L127.935 44.5106H128.082L133.151 24.8666H137.946L143.015 44.5106H143.162L147.452 24.8666H153.341L146.148 51.9981H140.785L135.632 33.4687H135.464ZM161.165 48.3385C163.542 48.3385 165.519 46.7821 165.519 44.5948V43.1225L161.271 43.3749C159.231 43.5221 158.053 44.4475 158.053 45.8777C158.053 47.4131 159.294 48.3385 161.165 48.3385ZM159.357 52.3136C155.529 52.3136 152.605 49.8318 152.605 46.2143C152.605 42.5547 155.424 40.4304 160.45 40.1149L165.519 39.8205V38.4954C165.519 36.6236 164.194 35.5299 162.133 35.5299C160.093 35.5299 158.789 36.5394 158.515 38.0327H153.489C153.699 34.1207 157.022 31.4286 162.364 31.4286C167.538 31.4286 170.903 34.0997 170.903 38.1589V52.0191H165.603V48.9274H165.498C164.362 51.0517 161.881 52.3136 159.357 52.3136ZM174.584 24.8666H180.073V51.9981H174.584V24.8666ZM183.901 24.8666H189.391V51.9981H183.901V24.8666ZM202.136 35.4668C199.739 35.4668 197.993 37.2966 197.804 39.7994H206.364C206.259 37.2335 204.576 35.4668 202.136 35.4668ZM206.448 45.8357H211.496C210.886 49.7897 207.289 52.4398 202.304 52.4398C196.1 52.4398 192.377 48.4647 192.377 42.0288C192.377 35.593 196.142 31.4286 202.094 31.4286C207.962 31.4286 211.664 35.4037 211.664 41.5241V43.2066H197.783V43.5432C197.783 46.4246 199.612 48.4016 202.41 48.4016C204.387 48.3595 205.922 47.371 206.448 45.8357ZM215.933 27.2011H221.423V31.8493H225.145V35.9926H221.423V45.6254C221.423 47.1607 222.18 47.8968 223.799 47.8968C224.283 47.8968 224.788 47.8548 225.124 47.8127V51.8509C224.557 51.9771 223.61 52.0822 222.516 52.0822C217.784 52.0822 215.933 50.5048 215.933 46.5718V35.9926H213.094V31.8493H215.933V27.2011ZM240.604 52.4608C232.717 52.4608 227.775 47.1817 227.775 38.4113C227.775 29.6619 232.759 24.3828 240.604 24.3828C247.124 24.3828 252.088 28.5262 252.529 34.5834H246.998C246.472 31.2603 243.906 29.073 240.604 29.073C236.314 29.073 233.558 32.6695 233.558 38.3692C233.558 44.1531 236.293 47.7286 240.625 47.7286C243.99 47.7286 246.409 45.7515 247.019 42.5336H252.55C251.898 48.633 247.271 52.4608 240.604 52.4608ZM264.812 52.4188C258.713 52.4188 254.822 48.5068 254.822 41.9027C254.822 35.3827 258.776 31.4076 264.812 31.4076C270.848 31.4076 274.803 35.3616 274.803 41.9027C274.803 48.5278 270.912 52.4188 264.812 52.4188ZM264.812 48.2333C267.504 48.2333 269.208 45.9619 269.208 41.9237C269.208 37.9276 267.483 35.614 264.812 35.614C262.141 35.614 260.395 37.9276 260.395 41.9237C260.395 45.9619 262.12 48.2333 264.812 48.2333ZM277.621 51.9981V31.8493H282.921V35.4458H283.026C284.099 32.9429 286.223 31.4707 289.336 31.4707C293.816 31.4707 296.318 34.289 296.318 39.0002V51.9981H290.829V40.157C290.829 37.5279 289.588 36.0136 287.127 36.0136C284.667 36.0136 283.11 37.8224 283.11 40.4304V51.9981H277.621V51.9981ZM299.789 51.9981V31.8493H305.089V35.4458H305.194C306.267 32.9429 308.391 31.4707 311.483 31.4707C315.963 31.4707 318.465 34.289 318.465 39.0002V51.9981H312.976V40.157C312.976 37.5279 311.735 36.0136 309.274 36.0136C306.814 36.0136 305.257 37.8224 305.257 40.4304V51.9981H299.789V51.9981ZM331.022 35.4668C328.624 35.4668 326.878 37.2966 326.689 39.7994H335.249C335.144 37.2335 333.461 35.4668 331.022 35.4668ZM335.312 45.8357H340.36C339.75 49.7897 336.154 52.4398 331.169 52.4398C324.964 52.4398 321.242 48.4647 321.242 42.0288C321.242 35.593 325.006 31.4286 330.959 31.4286C336.827 31.4286 340.528 35.4037 340.528 41.5241V43.2066H326.647V43.5432C326.647 46.4246 328.477 48.4016 331.274 48.4016C333.272 48.3595 334.807 47.371 335.312 45.8357ZM361.645 39.3367H356.555C356.239 37.2125 354.83 35.7192 352.58 35.7192C349.867 35.7192 348.184 38.0117 348.184 41.9027C348.184 45.8777 349.867 48.1282 352.601 48.1282C354.809 48.1282 356.218 46.8032 356.576 44.6158H361.687C361.413 49.3691 357.859 52.4398 352.559 52.4398C346.48 52.4398 342.631 48.4857 342.631 41.9237C342.631 35.4668 346.48 31.4286 352.517 31.4286C357.943 31.4076 361.413 34.7727 361.645 39.3367ZM365.788 27.2011H371.277V31.8493H375V35.9926H371.277V45.6254C371.277 47.1607 372.034 47.8968 373.654 47.8968C374.138 47.8968 374.642 47.8548 374.979 47.8127V51.8509C374.411 51.9771 373.486 52.0822 372.371 52.0822C367.639 52.0822 365.788 50.5048 365.788 46.5718V35.9926H362.949V31.8493H365.788V27.2011Z" fill="#CDC9D2"/>
<path d="M20.4275 11.941C36.6855 -3.98035 63.0388 -3.98035 79.3178 11.941L81.2738 13.855C82.094 14.6542 82.094 15.9372 81.2738 16.7364L74.5855 23.2984C74.1859 23.6981 73.5129 23.6981 73.1133 23.2984L70.4211 20.6694C59.0848 9.5644 40.6816 9.5644 29.3452 20.6694L26.4638 23.4877C26.0642 23.8873 25.3911 23.8873 24.9915 23.4877L18.2823 16.9257C17.462 16.1265 17.462 14.8435 18.2823 14.0443L20.4275 11.941ZM93.157 25.4858L99.1091 31.3117C99.9293 32.1109 99.9293 33.3939 99.1091 34.1931L72.2509 60.5044C71.4307 61.3037 70.1267 61.3037 69.3064 60.5044L50.2302 41.8278C50.0199 41.6385 49.7044 41.6385 49.4941 41.8278L30.4389 60.5044C29.6186 61.3037 28.3146 61.3037 27.4944 60.5044L0.615192 34.2142C-0.205064 33.4149 -0.205064 32.132 0.615192 31.3327L6.56731 25.5068C7.38757 24.7076 8.69156 24.7076 9.51182 25.5068L28.588 44.1834C28.7984 44.3727 29.1139 44.3727 29.3242 44.1834L48.3794 25.5068C49.1996 24.7076 50.5036 24.7076 51.3239 25.5068L70.4001 44.1834C70.6104 44.3727 70.9259 44.3727 71.1362 44.1834L90.2124 25.5068C91.0117 24.6866 92.3367 24.6866 93.157 25.4858Z" fill="#CDC9D2"/>
</svg>
