<svg width="370" height="71" viewBox="0 0 370 71" fill="none" xmlns="http://www.w3.org/2000/svg">
<path d="M326.153 35.5447C324.214 34.2229 322.099 33.3416 319.984 32.196C318.662 31.491 317.252 30.786 316.107 29.8167C314.168 28.2304 314.521 25.058 316.636 23.648C319.544 21.7093 324.39 22.7668 324.919 26.7323C324.919 26.8205 325.007 26.9086 325.095 26.9086H329.502C329.59 26.9086 329.678 26.8205 329.678 26.7323C329.414 24.0005 328.356 21.7093 326.417 20.2112C324.567 18.8012 322.452 18.0962 320.161 18.0962C308.528 18.0962 307.471 30.4335 313.727 34.311C314.432 34.7516 320.601 37.836 322.804 39.2459C325.007 40.5678 325.624 43.0353 324.743 44.974C323.862 46.7365 321.659 47.9702 319.456 47.794C316.988 47.6177 315.137 46.2959 314.432 44.269C314.344 43.9165 314.256 43.2115 314.256 42.859C314.256 42.7709 314.168 42.6828 314.08 42.6828H309.321C309.233 42.6828 309.145 42.7709 309.145 42.859C309.145 46.2958 310.026 48.2346 312.317 49.9971C314.521 51.6714 316.9 52.3764 319.456 52.3764C325.977 52.3764 329.325 48.6752 330.03 44.8859C330.559 41.1847 329.502 37.836 326.153 35.5447Z" fill="#C5C1CC"/>
<path d="M118.445 18.8008H116.33H114.039C113.95 18.8008 113.862 18.8889 113.862 18.8889L109.897 31.8431C109.809 32.0194 109.632 32.0194 109.544 31.8431L105.579 18.8889C105.579 18.8008 105.491 18.8008 105.402 18.8008H103.111H100.996H98.1763C98.0881 18.8008 98 18.8889 98 18.977V52.0235C98 52.1116 98.0881 52.1998 98.1763 52.1998H102.935C103.023 52.1998 103.111 52.1116 103.111 52.0235V26.9082C103.111 26.7319 103.376 26.6438 103.464 26.8201L107.429 39.8624L107.694 40.7436C107.694 40.8318 107.782 40.8318 107.87 40.8318H111.571C111.659 40.8318 111.747 40.7436 111.747 40.7436L112.012 39.8624L115.977 26.8201C116.065 26.6438 116.33 26.6438 116.33 26.9082V52.0235C116.33 52.1116 116.418 52.1998 116.506 52.1998H121.265C121.353 52.1998 121.441 52.1116 121.441 52.0235V18.977C121.441 18.8889 121.353 18.8008 121.265 18.8008H118.445Z" fill="#C5C1CC"/>
<path d="M252.922 18.8008C252.834 18.8008 252.746 18.8889 252.746 18.8889L248.78 31.8431C248.692 32.0194 248.516 32.0194 248.428 31.8431L244.462 18.8889C244.462 18.8008 244.374 18.8008 244.286 18.8008H236.971C236.883 18.8008 236.795 18.8889 236.795 18.977V52.0235C236.795 52.1116 236.883 52.1998 236.971 52.1998H241.73C241.818 52.1998 241.906 52.1116 241.906 52.0235V26.9082C241.906 26.7319 242.171 26.6438 242.259 26.8201L246.224 39.8624L246.489 40.7436C246.489 40.8318 246.577 40.8318 246.665 40.8318H250.366C250.454 40.8318 250.543 40.7436 250.543 40.7436L250.807 39.8624L254.772 26.8201C254.861 26.6438 255.125 26.6438 255.125 26.9082V52.0235C255.125 52.1116 255.213 52.1998 255.301 52.1998H260.06C260.148 52.1998 260.236 52.1116 260.236 52.0235V18.977C260.236 18.8889 260.148 18.8008 260.06 18.8008H252.922Z" fill="#C5C1CC"/>
<path d="M191.235 18.8008H182.335H177.576H168.587C168.499 18.8008 168.411 18.8889 168.411 18.977V23.1188C168.411 23.207 168.499 23.2951 168.587 23.2951H177.312V52.0235C177.312 52.1116 177.4 52.1998 177.488 52.1998H182.246C182.335 52.1998 182.423 52.1116 182.423 52.0235V23.2951H191.147C191.235 23.2951 191.323 23.207 191.323 23.1188V18.977C191.411 18.8889 191.323 18.8008 191.235 18.8008Z" fill="#C5C1CC"/>
<path d="M219.435 52.2005H223.753C223.841 52.2005 223.929 52.1124 223.929 51.9361L214.94 18.8015C214.94 18.7134 214.852 18.7134 214.764 18.7134H213.09H210.182H208.507C208.419 18.7134 208.331 18.8015 208.331 18.8015L199.343 51.9361C199.343 52.0242 199.431 52.2005 199.519 52.2005H203.837C203.925 52.2005 204.013 52.1124 204.013 52.1124L206.657 42.4187C206.657 42.3306 206.745 42.3306 206.833 42.3306H216.439C216.527 42.3306 216.615 42.4187 216.615 42.4187L219.259 52.1124C219.259 52.1124 219.347 52.2005 219.435 52.2005ZM207.979 37.5719L211.504 24.6177C211.592 24.4414 211.768 24.4414 211.856 24.6177L215.381 37.5719C215.381 37.66 215.293 37.8363 215.205 37.8363H208.243C208.067 37.8363 207.979 37.66 207.979 37.5719Z" fill="#C5C1CC"/>
<path d="M293.635 52.2005H297.953C298.041 52.2005 298.13 52.1124 298.13 51.9361L289.141 18.8015C289.141 18.7134 289.053 18.7134 288.965 18.7134H287.29H284.382H282.708C282.62 18.7134 282.532 18.8015 282.532 18.8015L273.543 51.9361C273.543 52.0242 273.631 52.2005 273.719 52.2005H278.037C278.125 52.2005 278.214 52.1124 278.214 52.1124L280.857 42.4187C280.857 42.3306 280.945 42.3306 281.034 42.3306H290.639C290.727 42.3306 290.815 42.4187 290.815 42.4187L293.459 52.1124C293.459 52.1124 293.547 52.2005 293.635 52.2005ZM282.179 37.5719L285.704 24.6177C285.792 24.4414 285.968 24.4414 286.057 24.6177L289.582 37.5719C289.582 37.66 289.493 37.8363 289.405 37.8363H282.443C282.267 37.8363 282.179 37.66 282.179 37.5719Z" fill="#C5C1CC"/>
<path d="M140.828 47.2648V37.0424C140.828 36.9543 140.916 36.8662 141.005 36.8662H153.783C153.871 36.8662 153.959 36.7781 153.959 36.6899V32.5481C153.959 32.46 153.871 32.3719 153.783 32.3719H141.005C140.916 32.3719 140.828 32.2837 140.828 32.1956V23.4713C140.828 23.3832 140.916 23.2951 141.005 23.2951H155.457C155.545 23.2951 155.633 23.207 155.633 23.1188V18.977C155.633 18.8889 155.545 18.8008 155.457 18.8008H140.828H135.893C135.805 18.8008 135.717 18.8889 135.717 18.977V23.2951V32.46V36.9543V47.5292V52.0235C135.717 52.1116 135.805 52.1998 135.893 52.1998H140.828H156.074C156.162 52.1998 156.25 52.1116 156.25 52.0235V47.7054C156.25 47.6173 156.162 47.5292 156.074 47.5292H140.916C140.916 47.4411 140.828 47.3529 140.828 47.2648Z" fill="#C5C1CC"/>
<path d="M369.862 51.848L353.295 34.7519C353.207 34.6638 353.207 34.5757 353.295 34.4876L368.188 18.9778C368.276 18.8896 368.188 18.7134 368.1 18.7134H362.019C361.931 18.7134 361.931 18.7134 361.931 18.8015L349.241 32.0201C349.153 32.1082 348.977 32.0201 348.977 31.932V19.0659C348.977 18.9777 348.889 18.8896 348.801 18.8896H343.954C343.866 18.8896 343.778 18.9777 343.778 19.0659V52.1124C343.778 52.2005 343.866 52.2886 343.954 52.2886H348.713C348.801 52.2886 348.889 52.2005 348.889 52.1124V37.5719C348.889 37.3957 349.065 37.3075 349.153 37.4838L363.429 52.2886L363.517 52.3767H369.598C369.862 52.2005 369.95 51.9361 369.862 51.848Z" fill="#C5C1CC"/>
<path d="M71.411 1L42.5063 22.5023L47.8819 9.8124L71.411 1Z" fill="#929096" stroke="#929096" stroke-linecap="round" stroke-linejoin="round"/>
<path d="M4.61304 1L33.3414 22.6785L28.2303 9.8124L4.61304 1Z" fill="#929096" stroke="#929096" stroke-linecap="round" stroke-linejoin="round"/>
<path d="M61.0125 50.79L53.2576 62.5987L69.8249 67.1811L74.4954 51.0544L61.0125 50.79Z" fill="#767577" stroke="#767577" stroke-linecap="round" stroke-linejoin="round"/>
<path d="M1.61694 51.0544L6.28752 67.1811L22.7667 62.5987L15.0999 50.79L1.61694 51.0544Z" fill="#767577" stroke="#767577" stroke-linecap="round" stroke-linejoin="round"/>
<path d="M21.8853 30.874L17.3029 37.8358L33.6058 38.5408L33.077 20.916L21.8853 30.874Z" fill="#929096" stroke="#929096" stroke-linecap="round" stroke-linejoin="round"/>
<path d="M54.2268 30.874L42.8588 20.7397L42.5063 38.5408L58.8093 37.8358L54.2268 30.874Z" fill="#929096" stroke="#929096" stroke-linecap="round" stroke-linejoin="round"/>
<path d="M22.7666 62.5987L32.6365 57.84L24.0885 51.1426L22.7666 62.5987Z" fill="#636066" stroke="#636066" stroke-linecap="round" stroke-linejoin="round"/>
<path d="M43.4758 57.84L53.2576 62.5987L51.9357 51.1426L43.4758 57.84Z" fill="#636066" stroke="#636066" stroke-linecap="round" stroke-linejoin="round"/>
<path d="M53.2576 62.599L43.4758 57.8403L44.2689 64.1853L44.1808 66.9171L53.2576 62.599Z" fill="#636066" stroke="#636066" stroke-linecap="round" stroke-linejoin="round"/>
<path d="M22.7667 62.599L31.9316 66.9171L31.8435 64.1853L32.6366 57.8403L22.7667 62.599Z" fill="#636066" stroke="#636066" stroke-linecap="round" stroke-linejoin="round"/>
<path d="M32.1076 46.9127L23.9121 44.5334L29.6402 41.8896L32.1076 46.9127Z" fill="#232325" stroke="#232325" stroke-linecap="round" stroke-linejoin="round"/>
<path d="M44.0042 46.9127L46.3835 41.8896L52.1997 44.5334L44.0042 46.9127Z" fill="#232325" stroke="#232325" stroke-linecap="round" stroke-linejoin="round"/>
<path d="M22.7661 62.5987L24.1761 50.79L15.0994 51.0544L22.7661 62.5987Z" fill="#4F4F4F" stroke="#4F4F4F" stroke-linecap="round" stroke-linejoin="round"/>
<path d="M51.9353 50.79L53.2572 62.5987L61.0121 51.0544L51.9353 50.79Z" fill="#4F4F4F" stroke="#4F4F4F" stroke-linecap="round" stroke-linejoin="round"/>
<path d="M58.8089 37.8354L42.506 38.5404L44.0041 46.9122L46.3834 41.8892L52.1996 44.5329L58.8089 37.8354Z" fill="#636066" stroke="#636066" stroke-linecap="round" stroke-linejoin="round"/>
<path d="M23.9118 44.5329L29.6398 41.8892L32.1073 46.9122L33.6054 38.5404L17.3025 37.8354L23.9118 44.5329Z" fill="#636066" stroke="#636066" stroke-linecap="round" stroke-linejoin="round"/>
<path d="M17.3027 37.8359L24.0883 51.1427L23.912 44.5334L17.3027 37.8359Z" fill="#4F4F4F" stroke="#4F4F4F" stroke-linecap="round" stroke-linejoin="round"/>
<path d="M52.1999 44.5334L51.9355 51.1427L58.8092 37.8359L52.1999 44.5334Z" fill="#4F4F4F" stroke="#4F4F4F" stroke-linecap="round" stroke-linejoin="round"/>
<path d="M33.6055 38.5405L32.1074 46.9123L33.958 56.8703L34.3987 43.7398L33.6055 38.5405Z" fill="#3C3B3E" stroke="#3C3B3E" stroke-linecap="round" stroke-linejoin="round"/>
<path d="M42.5064 38.5405L41.7133 43.7398L42.0658 56.8703L44.0045 46.9123L42.5064 38.5405Z" fill="#3C3B3E" stroke="#3C3B3E" stroke-linecap="round" stroke-linejoin="round"/>
<path d="M44.0045 46.9125L42.0658 56.8706L43.4758 57.8399L51.9357 51.1425L52.2001 44.5332L44.0045 46.9125Z" fill="#C5C1CC" stroke="#C5C1CC" stroke-linecap="round" stroke-linejoin="round"/>
<path d="M23.9121 44.5332L24.0884 51.1425L32.6364 57.8399L33.9582 56.8706L32.1076 46.9125L23.9121 44.5332Z" fill="#C5C1CC" stroke="#C5C1CC" stroke-linecap="round" stroke-linejoin="round"/>
<path d="M44.1807 66.9167L44.2688 64.1849L43.4757 63.568H32.5484L31.8434 64.1849L31.9315 66.9167L22.7666 62.5986L25.9391 65.2424L32.4602 69.7367H43.5639L50.085 65.2424L53.2575 62.5986L44.1807 66.9167Z" fill="#8B8890" stroke="#8B8890" stroke-linecap="round" stroke-linejoin="round"/>
<path d="M43.4756 57.84L42.0656 56.8706H33.9582L32.6364 57.84L31.8433 64.1849L32.5482 63.568H43.4756L44.2687 64.1849L43.4756 57.84Z" fill="#2D2A2D" stroke="#2D2A2D" stroke-linecap="round" stroke-linejoin="round"/>
<path d="M72.645 23.9122L75.1125 12.0155L71.4112 1L43.476 21.7973L54.2271 30.874L69.3844 35.2802L72.7331 31.4028L71.3231 30.3453L73.6143 28.2303L71.8519 26.8203L74.1431 25.0578L72.645 23.9122Z" fill="#4F4F4F" stroke="#4F4F4F" stroke-linecap="round" stroke-linejoin="round"/>
<path d="M1 12.0155L3.46747 23.9122L1.88124 25.0578L4.17246 26.8203L2.40998 28.2303L4.78933 30.3453L3.29122 31.4028L6.63993 35.2802L21.8854 30.874L32.6365 21.7973L4.61308 1L1 12.0155Z" fill="#4F4F4F" stroke="#4F4F4F" stroke-linecap="round" stroke-linejoin="round"/>
<path d="M69.3841 35.2802L54.2268 30.874L58.8092 37.8358L51.9355 51.1425L61.0123 51.0544H74.4953L69.3841 35.2802Z" fill="#C5C1CC" stroke="#C5C1CC" stroke-linecap="round" stroke-linejoin="round"/>
<path d="M21.8855 30.874L6.64001 35.2802L1.61694 51.0544H15.0999L24.0886 51.1425L17.303 37.8358L21.8855 30.874Z" fill="#C5C1CC" stroke="#C5C1CC" stroke-linecap="round" stroke-linejoin="round"/>
<path d="M42.5063 38.5409L43.4757 21.7974L47.8819 9.8125H28.2302L32.6364 21.7974L33.6058 38.5409L33.9583 43.8284V56.8707H42.0657V43.8284L42.5063 38.5409Z" fill="#C5C1CC" stroke="#C5C1CC" stroke-linecap="round" stroke-linejoin="round"/>
</svg>
